<?xml version="1.0" standalone="no"?>
<!DOCTYPE svg PUBLIC "-//W3C//DTD SVG 20010904//EN"
 "http://www.w3.org/TR/2001/REC-SVG-20010904/DTD/svg10.dtd">
<svg version="1.0" xmlns="http://www.w3.org/2000/svg"
 width="354.000000pt" height="320.000000pt" viewBox="0 0 354.000000 320.000000"
 preserveAspectRatio="xMidYMid meet">

<g transform="translate(0.000000,320.000000) scale(0.100000,-0.100000)"
fill="#000000" stroke="none">
<path d="M1555 2991 c-3 -16 -24 -56 -45 -88 -22 -32 -47 -69 -56 -83 -9 -14
6 -2 33 26 35 37 55 68 67 108 10 32 16 59 13 62 -3 3 -8 -8 -12 -25z"/>
<path d="M1935 2980 c13 -65 58 -136 107 -172 30 -20 29 -19 -12 33 -23 30
-56 81 -72 114 -24 49 -28 54 -23 25z"/>
<path d="M929 2913 c-6 -16 -18 -66 -26 -113 -12 -68 -13 -100 -4 -163 15
-109 19 -113 93 -121 264 -27 585 -33 919 -16 272 14 630 47 644 60 18 19 13
257 -8 323 l-18 57 -42 0 c-67 0 -217 -50 -217 -72 0 -5 25 -38 56 -71 l55
-62 -388 -2 c-213 -2 -490 1 -616 5 l-227 7 45 55 45 55 -43 22 c-70 35 -163
63 -212 63 -40 0 -47 -3 -56 -27z"/>
<path d="M773 2244 c-14 -83 -8 -282 11 -374 10 -47 19 -89 20 -95 1 -5 10
-24 19 -42 9 -18 17 -34 17 -37 0 -3 -28 -7 -62 -9 l-63 -3 66 -2 c66 -2 66
-2 94 -44 16 -23 50 -64 78 -91 l49 -48 -42 -55 c-37 -49 -45 -55 -69 -49 -19
4 -35 0 -54 -15 -29 -23 -33 -45 -16 -84 11 -22 8 -32 -25 -78 -20 -29 -36
-60 -36 -69 0 -18 52 -59 76 -59 10 0 28 10 41 22 13 12 24 20 26 17 1 -2 17
-23 35 -46 l32 -42 0 -465 0 -466 790 0 790 0 0 468 c0 495 0 492 -47 492 -12
0 -27 8 -32 19 -26 47 -128 52 -167 8 l-20 -24 -286 5 c-245 4 -285 7 -273 19
20 19 10 38 -20 38 -19 0 -25 -5 -25 -22 0 -12 6 -24 13 -26 6 -3 -139 -5
-323 -4 -310 2 -335 3 -338 20 -2 10 3 17 12 17 26 0 18 23 -19 59 -36 33 -36
34 -15 48 18 12 21 22 16 48 -5 27 0 41 39 94 25 33 48 61 52 61 5 0 33 -9 63
-20 30 -12 62 -23 70 -26 11 -4 3 -16 -29 -43 l-45 -38 78 -8 78 -7 -6 -40 -6
-39 180 7 c129 5 183 4 193 -4 10 -9 36 -9 98 -1 52 7 149 8 257 4 l173 -7 -7
41 c-6 40 -6 41 23 41 17 0 51 3 77 6 l48 7 -43 37 -42 36 64 23 c136 49 234
123 295 222 l37 59 71 2 71 2 -67 3 c-38 2 -68 6 -68 9 0 2 9 37 20 77 28 100
43 311 29 417 -5 47 -13 88 -17 92 -4 3 -54 0 -112 -7 -201 -26 -367 -36 -717
-42 -296 -5 -350 -8 -335 -19 22 -17 8 -18 -26 0 -16 8 -80 16 -158 20 -126 6
-132 5 -181 -20 -67 -33 -127 -99 -166 -182 -27 -57 -31 -77 -30 -147 0 -44 6
-97 14 -117 13 -36 14 -33 14 70 0 94 3 113 25 157 37 75 114 148 181 173 46
17 83 21 206 23 l151 2 41 -34 c59 -47 110 -153 118 -245 13 -161 -76 -313
-226 -383 -49 -23 -69 -26 -156 -26 -91 0 -106 3 -165 31 -79 37 -150 107
-188 183 -24 51 -27 66 -27 166 0 101 2 114 28 163 37 70 90 128 151 162 l49
29 -34 5 c-19 3 -101 13 -184 21 -82 9 -162 19 -177 22 -25 5 -27 3 -35 -43z
m1511 -75 c57 -19 150 -109 183 -177 24 -50 28 -68 27 -152 -1 -255 -121 -381
-399 -421 -105 -15 -517 -15 -623 0 -90 13 -234 55 -157 45 106 -12 252 42
335 126 75 74 113 161 118 272 5 102 -10 162 -64 250 -19 31 -34 58 -34 60 0
1 21 2 47 0 27 -1 100 2 163 7 148 12 354 7 404 -10z m-1206 -629 c-7 -10 -14
-17 -17 -15 -4 4 18 35 25 35 2 0 -1 -9 -8 -20z m-108 -340 c0 -5 -7 -10 -16
-10 -8 0 -12 5 -9 10 3 6 10 10 16 10 5 0 9 -4 9 -10z m48 -47 c2 -7 -4 -16
-12 -19 -19 -7 -49 14 -40 28 8 13 46 6 52 -9z m42 -113 c0 -13 -7 -20 -20
-20 -13 0 -20 7 -20 20 0 13 7 20 20 20 13 0 20 -7 20 -20z m80 0 c0 -13 -7
-20 -20 -20 -13 0 -20 7 -20 20 0 13 7 20 20 20 13 0 20 -7 20 -20z m75 10 c4
-6 1 -18 -6 -26 -11 -13 -14 -13 -27 0 -8 8 -11 19 -8 25 9 14 33 14 41 1z
m390 -194 c12 -18 14 -30 6 -43 -5 -11 -84 -68 -175 -129 -91 -60 -166 -111
-166 -114 0 -3 75 -54 166 -114 91 -61 170 -118 175 -129 15 -27 -15 -71 -44
-65 -12 3 -115 66 -229 141 -195 128 -208 138 -208 167 0 28 14 39 211 170
115 77 219 140 229 140 11 0 27 -11 35 -24z m584 -115 c114 -77 211 -147 214
-155 4 -9 4 -23 0 -32 -8 -21 -418 -294 -442 -294 -25 0 -41 20 -41 52 0 25
17 39 170 140 94 61 170 115 170 118 0 4 -76 58 -170 120 -150 99 -170 115
-170 139 0 31 16 51 42 51 10 0 112 -63 227 -139z"/>
<path d="M2116 1849 c-76 -10 -141 -21 -144 -24 -15 -14 16 -15 129 0 179 22
199 26 199 36 0 12 -16 11 -184 -12z"/>
<path d="M1736 1667 c-28 -21 -12 -59 22 -55 41 5 42 67 1 68 -3 0 -13 -6 -23
-13z"/>
<path d="M1670 1547 c0 -21 43 -56 75 -62 39 -7 95 26 95 56 0 19 -3 18 -29
-10 -36 -39 -64 -39 -103 -1 -33 34 -38 36 -38 17z"/>
<path d="M643 1763 c26 -2 67 -2 90 0 23 2 2 3 -48 3 -49 0 -68 -1 -42 -3z"/>
<path d="M2793 1763 c31 -2 83 -2 115 0 31 2 5 3 -58 3 -63 0 -89 -1 -57 -3z"/>
<path d="M417 1753 c18 -2 50 -2 70 0 21 2 7 4 -32 4 -38 0 -55 -2 -38 -4z"/>
<path d="M3033 1753 c20 -2 54 -2 75 0 20 2 3 4 -38 4 -41 0 -58 -2 -37 -4z"/>
<path d="M308 1743 c12 -2 32 -2 45 0 12 2 2 4 -23 4 -25 0 -35 -2 -22 -4z"/>
<path d="M3178 1743 c12 -2 32 -2 45 0 12 2 2 4 -23 4 -25 0 -35 -2 -22 -4z"/>
<path d="M233 1733 c9 -2 25 -2 35 0 9 3 1 5 -18 5 -19 0 -27 -2 -17 -5z"/>
<path d="M3263 1733 c9 -2 25 -2 35 0 9 3 1 5 -18 5 -19 0 -27 -2 -17 -5z"/>
<path d="M173 1723 c9 -2 23 -2 30 0 6 3 -1 5 -18 5 -16 0 -22 -2 -12 -5z"/>
<path d="M3333 1723 c9 -2 23 -2 30 0 6 3 -1 5 -18 5 -16 0 -22 -2 -12 -5z"/>
<path d="M118 1713 c6 -2 18 -2 25 0 6 3 1 5 -13 5 -14 0 -19 -2 -12 -5z"/>
<path d="M3388 1713 c6 -2 18 -2 25 0 6 3 1 5 -13 5 -14 0 -19 -2 -12 -5z"/>
<path d="M623 1673 c15 -2 37 -2 50 0 12 2 0 4 -28 4 -27 0 -38 -2 -22 -4z"/>
<path d="M2863 1673 c15 -2 37 -2 50 0 12 2 0 4 -28 4 -27 0 -38 -2 -22 -4z"/>
<path d="M528 1663 c12 -2 30 -2 40 0 9 3 -1 5 -23 4 -22 0 -30 -2 -17 -4z"/>
<path d="M2968 1663 c12 -2 30 -2 40 0 9 3 -1 5 -23 4 -22 0 -30 -2 -17 -4z"/>
<path d="M443 1653 c9 -2 25 -2 35 0 9 3 1 5 -18 5 -19 0 -27 -2 -17 -5z"/>
<path d="M3053 1653 c9 -2 23 -2 30 0 6 3 -1 5 -18 5 -16 0 -22 -2 -12 -5z"/>
<path d="M383 1643 c9 -2 23 -2 30 0 6 3 -1 5 -18 5 -16 0 -22 -2 -12 -5z"/>
<path d="M3123 1643 c9 -2 23 -2 30 0 6 3 -1 5 -18 5 -16 0 -22 -2 -12 -5z"/>
<path d="M328 1633 c6 -2 18 -2 25 0 6 3 1 5 -13 5 -14 0 -19 -2 -12 -5z"/>
<path d="M3178 1633 c6 -2 18 -2 25 0 6 3 1 5 -13 5 -14 0 -19 -2 -12 -5z"/>
<path d="M278 1623 c6 -2 18 -2 25 0 6 3 1 5 -13 5 -14 0 -19 -2 -12 -5z"/>
<path d="M3228 1623 c6 -2 18 -2 25 0 6 3 1 5 -13 5 -14 0 -19 -2 -12 -5z"/>
<path d="M200 1610 c-20 -6 -21 -8 -5 -8 11 0 31 4 45 8 20 6 21 8 5 8 -11 0
-31 -4 -45 -8z"/>
<path d="M3335 1599 c39 -10 74 -17 80 -16 11 4 -118 37 -137 36 -7 0 19 -9
57 -20z"/>
<path d="M125 1590 c-13 -5 -14 -9 -5 -9 8 0 24 4 35 9 13 5 14 9 5 9 -8 0
-24 -4 -35 -9z"/>
</g>
</svg>
