<?xml version="1.0" standalone="no"?>
<!DOCTYPE svg PUBLIC "-//W3C//DTD SVG 20010904//EN"
 "http://www.w3.org/TR/2001/REC-SVG-20010904/DTD/svg10.dtd">
<svg version="1.0" xmlns="http://www.w3.org/2000/svg"
 width="512.000000pt" height="512.000000pt" viewBox="0 0 512.000000 512.000000"
 preserveAspectRatio="xMidYMid meet">

<g transform="translate(0.000000,512.000000) scale(0.100000,-0.100000)"
fill="#000000" stroke="none">
<path d="M2330 5110 c-494 -48 -950 -230 -1350 -538 -195 -150 -448 -432 -594
-662 -63 -99 -186 -351 -230 -471 -49 -134 -102 -340 -128 -499 -31 -195 -31
-565 0 -760 45 -276 116 -498 237 -745 132 -269 269 -460 489 -681 221 -220
412 -357 681 -489 247 -121 469 -192 745 -237 195 -31 565 -31 760 0 276 45
498 116 745 237 269 132 460 269 681 489 220 221 357 412 489 681 88 179 132
296 180 476 63 240 78 371 78 649 0 278 -15 409 -78 649 -48 180 -92 297 -180
476 -132 269 -269 460 -489 681 -221 220 -412 357 -681 489 -246 121 -474 193
-740 235 -147 23 -475 34 -615 20z m509 -566 c887 -130 1575 -818 1705 -1705
10 -65 16 -175 16 -279 0 -104 -6 -214 -16 -279 -130 -887 -818 -1575 -1705
-1705 -140 -21 -418 -21 -558 0 -887 130 -1575 818 -1705 1705 -21 140 -21
418 0 558 129 882 813 1569 1694 1704 132 21 434 21 569 1z"/>
<path d="M2448 3044 c-250 -60 -421 -312 -380 -556 37 -218 202 -383 420 -420
318 -54 618 246 564 565 -49 288 -328 478 -604 411z"/>
</g>
</svg>
